<?xml version="1.0" standalone="no"?>
<!DOCTYPE svg PUBLIC "-//W3C//DTD SVG 20010904//EN"
 "http://www.w3.org/TR/2001/REC-SVG-20010904/DTD/svg10.dtd">
<svg version="1.0" xmlns="http://www.w3.org/2000/svg"
 width="800.000000pt" height="243.000000pt" viewBox="0 0 800.000000 243.000000"
 preserveAspectRatio="xMidYMid meet">

<g transform="translate(0.000000,243.000000) scale(0.100000,-0.100000)"
fill="#000000" stroke="none">
<path d="M240 2351 c-79 -16 -160 -87 -179 -158 -15 -53 -15 -1893 0 -1946 13
-47 69 -111 123 -140 l41 -22 3745 -3 c2629 -1 3760 1 3797 8 70 15 125 57
157 121 l26 53 0 949 c0 723 -3 960 -12 991 -7 24 -30 59 -54 83 -81 80 298
73 -3878 72 -2052 -1 -3747 -4 -3766 -8z m1431 -387 c-28 -148 -132 -258 -258
-272 -42 -4 -43 -4 -43 25 0 91 62 201 145 258 55 39 143 69 158 55 5 -4 4
-34 -2 -66z m2547 -151 l2 -203 -35 0 -35 0 0 198 c0 109 3 202 7 206 4 4 19
6 33 4 l25 -3 3 -202z m1012 33 c0 -95 3 -188 6 -205 6 -29 5 -31 -25 -31 -25
0 -31 4 -31 22 l0 21 -24 -22 c-34 -32 -84 -37 -124 -11 -79 49 -83 189 -7
248 34 27 100 30 127 5 17 -15 18 -13 18 65 l0 82 30 0 30 0 0 -174z m1440 94
l0 -80 24 15 c39 26 104 16 130 -18 18 -24 22 -46 24 -138 l4 -109 -31 0 -31
0 0 88 c0 102 -13 136 -54 140 -53 6 -66 -19 -66 -130 l0 -98 -30 0 -30 0 0
205 0 205 30 0 30 0 0 -80z m-3888 50 c86 -24 135 -105 125 -205 -7 -67 -35
-116 -85 -147 -30 -18 -55 -23 -134 -26 l-98 -4 0 190 c0 173 2 191 18 195 33
9 137 7 174 -3z m3704 -100 c30 0 34 -3 34 -25 0 -22 -4 -25 -35 -25 l-35 0 0
-77 c0 -87 7 -105 42 -108 15 -1 24 -9 26 -22 4 -26 -25 -37 -68 -28 -45 10
-60 48 -60 150 0 78 -2 85 -20 85 -15 0 -20 7 -20 25 0 18 5 25 20 25 14 0 20
7 20 24 0 18 8 27 28 34 26 8 27 7 30 -25 3 -30 6 -33 38 -33z m-3296 -15 c51
-26 77 -101 59 -167 -39 -146 -242 -135 -264 15 -9 57 17 123 59 148 38 23
106 25 146 4z m200 -27 c11 -40 18 -71 35 -143 6 -27 11 -18 39 75 29 96 34
105 57 108 25 3 28 -1 57 -105 26 -94 31 -104 37 -78 4 17 16 65 28 108 19 74
21 77 50 77 23 0 28 -4 24 -17 -2 -10 -22 -73 -43 -141 l-38 -123 -31 3 c-29
3 -31 6 -55 95 -14 51 -28 93 -32 93 -5 0 -8 -5 -8 -11 0 -6 -12 -49 -26 -95
-24 -80 -27 -84 -54 -84 -28 0 -30 4 -55 88 -15 48 -33 107 -41 131 -19 60
-18 61 16 61 26 0 30 -5 40 -42z m467 23 c5 -20 5 -20 26 0 21 19 78 26 112
13 33 -13 45 -59 45 -169 l0 -105 -30 0 -30 0 0 96 c0 109 -9 134 -48 134 -56
0 -72 -32 -72 -144 l0 -86 -30 0 -30 0 0 140 0 140 26 0 c17 0 28 -6 31 -19z
m680 -15 c33 -30 37 -39 41 -92 3 -50 0 -65 -20 -94 -45 -67 -129 -86 -193
-44 -50 33 -71 134 -40 194 25 49 61 70 121 70 48 0 59 -4 91 -34z m310 10
c27 -24 28 -27 31 -140 l4 -116 -26 0 c-13 0 -27 4 -30 9 -3 5 -25 2 -49 -7
-37 -13 -46 -13 -72 -1 -41 20 -59 60 -46 102 13 39 53 65 115 73 51 7 53 10
30 43 -13 18 -23 22 -53 19 -20 -3 -43 -8 -52 -12 -12 -5 -18 -1 -22 14 -7 27
19 39 90 39 41 1 58 -4 80 -23z m876 -9 c47 -44 57 -105 29 -170 -25 -57 -60
-80 -122 -81 -83 -2 -134 55 -133 145 1 88 52 138 140 139 45 0 56 -4 86 -33z
m187 12 l0 -20 26 20 c18 14 41 21 69 21 36 0 48 -5 69 -31 25 -29 26 -37 26
-140 l0 -109 -29 0 -29 0 -4 105 c-3 114 -8 125 -60 125 -45 0 -58 -31 -58
-137 l0 -93 -30 0 -30 0 0 140 0 140 25 0 c19 0 25 -5 25 -21z m1240 -7 c29
-29 47 -89 36 -117 -4 -12 -24 -15 -96 -15 -49 0 -90 -4 -90 -9 0 -46 54 -76
122 -67 47 7 49 6 46 -16 -6 -41 -108 -47 -170 -10 -75 44 -77 182 -3 240 20
16 42 22 77 22 41 0 54 -5 78 -28z m-5880 -226 c101 -41 109 -41 227 0 98 33
114 36 183 31 93 -6 155 -33 220 -93 l49 -46 -53 -51 c-80 -79 -101 -131 -101
-247 0 -83 4 -101 27 -145 27 -53 100 -127 143 -147 30 -13 28 -21 -22 -123
-65 -129 -165 -252 -226 -274 -47 -18 -111 -13 -183 15 -94 35 -177 35 -265
-1 -132 -54 -205 -30 -309 103 -114 146 -187 335 -197 512 -7 119 7 195 52
287 89 180 273 253 455 179z m3886 -321 c28 -11 35 -19 29 -32 -3 -10 -9 -30
-12 -46 -8 -37 -14 -40 -59 -21 -27 11 -60 15 -111 12 -63 -3 -76 -7 -100 -31
-21 -20 -28 -37 -28 -66 0 -55 31 -85 142 -136 107 -51 175 -108 191 -163 37
-124 -17 -238 -135 -282 -66 -25 -196 -27 -269 -5 -75 23 -75 23 -58 82 l15
51 44 -19 c65 -29 155 -35 209 -15 54 21 76 52 76 109 0 60 -28 87 -143 141
-148 68 -197 124 -197 224 0 64 13 98 53 140 60 63 124 83 239 77 42 -2 93
-11 114 -20z m-2106 -367 c68 -211 125 -389 128 -396 3 -10 -11 -12 -64 -10
l-69 3 -35 113 -35 112 -129 -2 c-128 -3 -129 -3 -137 -28 -4 -14 -20 -64 -35
-112 l-26 -88 -64 0 c-35 0 -64 2 -64 5 0 5 141 446 226 708 l26 77 77 0 78 0
123 -382z m2520 162 l70 0 0 -50 0 -50 -71 0 -70 0 3 -171 c3 -166 4 -171 27
-190 14 -11 39 -19 63 -19 l39 0 -3 -47 -3 -48 -82 0 c-73 0 -84 3 -109 25
-48 45 -54 74 -54 269 l0 180 -42 3 -43 3 0 45 0 45 42 3 42 3 3 52 3 51 55
16 55 16 3 -68 3 -68 69 0z m-1906 -1 c56 -16 121 -80 146 -145 25 -68 27
-199 4 -267 -21 -61 -83 -130 -136 -152 -85 -34 -206 -15 -243 39 -14 18 -15
5 -15 -127 l0 -147 -65 0 -65 0 0 400 0 400 55 0 55 0 0 -47 0 -47 39 38 c58
57 143 78 225 55z m702 -24 c104 -61 151 -221 108 -365 -37 -123 -121 -191
-238 -191 -70 0 -95 9 -138 49 l-28 26 0 -147 0 -147 -60 0 -60 0 0 323 c0
178 -3 358 -6 400 l-7 77 55 0 c60 0 67 -8 68 -70 l1 -25 20 28 c58 77 191 97
285 42z m1752 6 c121 -62 176 -201 138 -350 -22 -87 -68 -149 -137 -184 -46
-24 -67 -28 -131 -28 -44 0 -91 6 -111 14 -54 23 -112 82 -137 140 -75 174 5
378 167 423 62 18 161 11 211 -15z m562 -30 l0 -58 -45 -5 c-108 -13 -127 -53
-133 -285 l-4 -173 -59 0 -59 0 0 275 c0 151 0 278 0 283 0 4 24 7 53 7 l52 0
6 -55 c3 -30 6 -49 7 -42 6 48 93 111 155 112 26 0 27 -1 27 -59z m403 48 c93
-25 157 -126 157 -246 l0 -73 -190 0 c-212 0 -203 3 -174 -70 32 -80 121 -112
242 -88 40 8 75 12 77 9 2 -4 6 -23 10 -43 l7 -37 -57 -16 c-74 -22 -214 -17
-266 8 -56 28 -106 84 -130 146 -28 73 -23 192 11 263 58 123 185 183 313 147z"/>
<path d="M5079 1836 c-55 -27 -63 -121 -14 -163 33 -29 50 -29 80 2 20 20 25
34 25 78 0 39 -5 58 -17 69 -28 23 -48 27 -74 14z"/>
<path d="M2650 1805 l0 -145 55 0 c49 0 60 4 92 34 34 31 37 39 41 98 7 110
-37 158 -143 158 l-45 0 0 -145z"/>
<path d="M3075 1825 c-20 -19 -25 -34 -25 -73 0 -86 56 -128 111 -83 21 16 24
28 24 81 0 53 -3 65 -24 81 -31 26 -57 24 -86 -6z"/>
<path d="M4402 1827 c-28 -30 -37 -77 -22 -121 19 -60 70 -74 111 -30 19 20
24 36 23 75 -1 84 -64 127 -112 76z"/>
<path d="M4750 1737 c-19 -10 -25 -20 -25 -47 0 -31 3 -35 27 -38 35 -4 68 29
68 68 0 24 -4 30 -22 30 -13 0 -34 -6 -48 -13z"/>
<path d="M5585 1825 c-53 -52 -22 -175 45 -175 67 0 98 123 45 175 -13 14 -33
25 -45 25 -11 0 -32 -11 -45 -25z"/>
<path d="M7021 1824 c-12 -15 -21 -31 -21 -35 0 -5 29 -9 65 -9 70 0 78 7 49
48 -22 31 -67 29 -93 -4z"/>
<path d="M2830 1170 c-7 -30 -30 -110 -50 -177 l-38 -123 105 0 c80 0 104 3
101 13 -20 51 -63 189 -82 258 l-23 84 -13 -55z"/>
<path d="M3502 1004 c-59 -30 -77 -67 -80 -172 -3 -57 1 -104 8 -122 37 -89
150 -112 222 -44 77 75 66 273 -18 329 -38 25 -93 29 -132 9z"/>
<path d="M4165 1006 c-68 -31 -95 -86 -95 -193 0 -120 48 -185 139 -186 58 -1
100 26 127 80 27 55 26 185 -1 232 -39 67 -110 95 -170 67z"/>
<path d="M5945 1014 c-22 -7 -41 -14 -42 -14 -1 0 -15 -21 -30 -47 -24 -42
-28 -58 -28 -128 0 -93 22 -146 75 -182 103 -71 214 24 214 182 0 140 -86 226
-189 189z"/>
<path d="M6934 1011 c-29 -17 -74 -91 -74 -119 0 -9 37 -12 130 -12 l130 0 0
25 c0 99 -102 157 -186 106z"/>
</g>
</svg>
